<svg xmlns="http://www.w3.org/2000/svg" xmlns:xlink="http://www.w3.org/1999/xlink"><symbol viewBox="0 0 20 20" id="grid3" xmlns="http://www.w3.org/2000/svg"><circle id="a_1" data-name="1" class="acls-1" cx="4.5" cy="5.5" r="2.5"/><circle id="a_1_copy_2" data-name="1 copy 2" class="acls-1" cx="4.5" cy="14.5" r="2.5"/><circle id="a_3_copy_2" data-name="3 copy 2" class="acls-1" cx="14.5" cy="14.5" r="2.5"/></symbol><symbol viewBox="0 0 20 20" id="grid4" xmlns="http://www.w3.org/2000/svg"><circle id="b_1" data-name="1" class="bcls-1" cx="4.5" cy="5.5" r="2.5"/><circle id="b_3" data-name="3" class="bcls-1" cx="14.5" cy="5.5" r="2.5"/><circle id="b_1_copy_2" data-name="1 copy 2" class="bcls-1" cx="4.5" cy="14.5" r="2.5"/><circle id="b_3_copy_2" data-name="3 copy 2" class="bcls-1" cx="14.5" cy="14.5" r="2.5"/></symbol><symbol viewBox="0 0 20 20" id="grid5" xmlns="http://www.w3.org/2000/svg"><circle id="c_1" data-name="1" class="ccls-1" cx="2.5" cy="2.5" r="2.5"/><circle id="c_3" data-name="3" class="ccls-1" cx="17.5" cy="2.5" r="2.5"/><circle id="c_2_copy" data-name="2 copy" class="ccls-1" cx="10.5" cy="10.5" r="2.5"/><circle id="c_1_copy_2" data-name="1 copy 2" class="ccls-1" cx="2.5" cy="17.5" r="2.5"/><circle id="c_3_copy_2" data-name="3 copy 2" class="ccls-1" cx="17.5" cy="17.5" r="2.5"/></symbol><symbol viewBox="0 0 20 20" id="grid6" xmlns="http://www.w3.org/2000/svg"><circle id="d_1" data-name="1" class="dcls-1" cx="2.5" cy="2.5" r="2.5"/><circle id="d_2" data-name="2" class="dcls-1" cx="10.5" cy="2.5" r="2.5"/><circle id="d_3" data-name="3" class="dcls-1" cx="17.5" cy="2.5" r="2.5"/><circle id="d_1_copy" data-name="1 copy" class="dcls-1" cx="2.5" cy="10.5" r="2.5"/><circle id="d_2_copy" data-name="2 copy" class="dcls-1" cx="10.5" cy="10.5" r="2.5"/><circle id="d_3_copy" data-name="3 copy" class="dcls-1" cx="17.5" cy="10.5" r="2.5"/><circle id="d_1_copy_2" data-name="1 copy 2" class="dcls-1" cx="2.5" cy="17.5" r="2.5"/><circle id="d_2_copy_2" data-name="2 copy 2" class="dcls-1" cx="10.5" cy="17.5" r="2.5"/><circle id="d_3_copy_2" data-name="3 copy 2" class="dcls-1" cx="17.5" cy="17.5" r="2.5"/></symbol></svg>